<?xml version="1.0" encoding="UTF-8" standalone="no"?>
<svg
   width="500pt"
   height="100pt"
   viewBox="0 0 499.99997 99.999999"
   version="1.1"
   id="svg36"
   sodipodi:docname="scritta_marzia_and_niccolo_white.svg"
   inkscape:version="1.2.2 (b0a8486541, 2022-12-01)"
   xmlns:inkscape="http://www.inkscape.org/namespaces/inkscape"
   xmlns:sodipodi="http://sodipodi.sourceforge.net/DTD/sodipodi-0.dtd"
   xmlns="http://www.w3.org/2000/svg"
   xmlns:svg="http://www.w3.org/2000/svg">
  <defs
     id="defs40" />
  <sodipodi:namedview
     id="namedview38"
     pagecolor="#505050"
     bordercolor="#eeeeee"
     borderopacity="1"
     inkscape:showpageshadow="0"
     inkscape:pageopacity="0"
     inkscape:pagecheckerboard="0"
     inkscape:deskcolor="#505050"
     inkscape:document-units="pt"
     showgrid="false"
     inkscape:zoom="0.96329249"
     inkscape:cx="128.20613"
     inkscape:cy="-186.85913"
     inkscape:window-width="1920"
     inkscape:window-height="1011"
     inkscape:window-x="0"
     inkscape:window-y="0"
     inkscape:window-maximized="1"
     inkscape:current-layer="svg36"
     showguides="true" />
  <path
     fill-rule="nonzero"
     fill="#8b9f81"
     fill-opacity="1"
     d="m 60.24023,35.626124 8.6211,22.00391 8.58203,-22.00391 h 4.67187 v 39.97266 h -3.52734 v -25.5 l 0.0312,-6.56641 c 0,-0.82031 -0.008,-2.04297 -0.0312,-3.66797 -0.6875,2.61719 -1.60547,5.42578 -2.75391,8.42188 l -6.97265,18.1289 -5.91016,-15.23828 c -1.15234,-2.9375 -2.51562,-6.59375 -4.10547,-10.96875 0.25,8.61719 0.375,13.40235 0.375,14.35938 v 21.03125 h -3.69531 v -39.97266 z m 0,0"
     id="path2"
     style="fill:#ffffff" />
  <path
     fill-rule="nonzero"
     fill="#8b9f81"
     fill-opacity="1"
     d="m 98.63086,40.497224 -4.42578,18.05078 h 8.94531 z m -1.84375,-4.8711 h 3.83203 l 11.15234,39.97266 h -4.35546 l -3.39454,-13.8125 H 93.41211 l -3.39063,13.8125 h -4.25 z m 0,0"
     id="path4"
     style="fill:#ffffff" />
  <path
     fill-rule="nonzero"
     fill="#8b9f81"
     fill-opacity="1"
     d="m 119.2793,39.122224 v 14.95703 h 3.98047 c 2.82812,0 5.11328,-0.75 6.84765,-2.25 1.73828,-1.5 2.60938,-3.52735 2.60938,-6.08594 0,-2.21875 -0.6211,-3.875 -1.85938,-4.97266 -1.24609,-1.10156 -3.10547,-1.64843 -5.58984,-1.64843 z m -3.8125,-3.4961 h 9.6289 c 3.47657,0 6.26953,0.79688 8.38282,2.39063 2.10937,1.59765 3.16406,4.02734 3.16406,7.29297 0,2.46484 -0.66406,4.60156 -1.99219,6.40625 -1.32422,1.80468 -3.39453,3.16406 -6.20312,4.08203 1.92968,0.5 3.35546,1.35156 4.28515,2.5664 0.92578,1.21094 1.625,2.99219 2.10547,5.34375 l 2.34766,11.89063 h -4.15235 l -1.58203,-9.62891 c -0.51562,-3.05469 -1.3789,-5.26172 -2.59375,-6.61719 -1.21094,-1.35546 -2.96094,-2.03515 -5.2539,-2.03515 h -4.32422 v 18.28125 h -3.8125 z m 0,0"
     id="path6"
     style="fill:#ffffff" />
  <path
     fill-rule="nonzero"
     fill="#8b9f81"
     fill-opacity="1"
     d="m 140.11133,35.626124 h 20.25781 v 3.37891 l -17.42187,33.21484 h 19.85546 v 3.37891 h -24.15234 v -3.37891 l 17.25781,-33.21484 h -15.79687 z m 0,0"
     id="path8"
     style="fill:#ffffff" />
  <path
     fill-rule="nonzero"
     fill="#8b9f81"
     fill-opacity="1"
     d="m 166.75586,35.626124 h 3.89844 v 39.96875 h -3.89844 z m 0,0"
     id="path10"
     style="fill:#ffffff" />
  <path
     fill-rule="nonzero"
     fill="#8b9f81"
     fill-opacity="1"
     d="m 187.25977,40.497224 -4.42579,18.05078 h 8.94141 z m -1.84375,-4.8711 h 3.83203 l 11.14843,39.97266 h -4.35546 l -3.39454,-13.8125 h -10.60546 l -3.39063,13.8125 h -4.25 z m 0,0"
     id="path12"
     style="fill:#ffffff" />
  <path
     fill-rule="nonzero"
     fill="#8b9f81"
     fill-opacity="1"
     d="m 271.56445,35.618314 11.84375,26.61719 3.09766,7.01953 c -0.21094,-7.17969 -0.31641,-10.89844 -0.31641,-11.14453 v -22.49219 h 3.46485 v 39.96875 h -3.89453 l -11.46094,-25.64063 c -0.32813,-0.73046 -0.9375,-2.27734 -1.83594,-4.64453 l -1.375,-3.52343 c -0.0547,0.80078 -0.0898,1.26953 -0.0898,1.40234 l 0.14453,3.09766 0.0273,4.4375 -0.082,1.72265 v 23.14844 h -3.46875 v -39.96875 z m 0,0"
     id="path14"
     style="fill:#ffffff" />
  <path
     fill-rule="nonzero"
     fill="#8b9f81"
     fill-opacity="1"
     d="m 297.13477,35.618314 h 3.89453 v 39.96875 h -3.89453 z m 0,0"
     id="path16"
     style="fill:#ffffff" />
  <path
     fill-rule="nonzero"
     fill="#8b9f81"
     fill-opacity="1"
     d="m 327.50977,73.766754 c -2.69922,1.63281 -5.20704,2.45312 -7.53907,2.45312 -2.75,0 -5.14843,-0.91797 -7.19531,-2.75 -2.03906,-1.83203 -3.53516,-4.36719 -4.46875,-7.59375 -0.9375,-3.22656 -1.40234,-6.6875 -1.40234,-10.37109 0,-6.07422 1.20703,-11.01953 3.60937,-14.83203 2.40625,-3.8086 5.67578,-5.71485 9.80078,-5.71485 2.3711,0 4.76563,0.8125 7.19532,2.4336 v 4.64453 c -2.53516,-2.35156 -4.88282,-3.52735 -7.04297,-3.52735 -2.91407,0 -5.23047,1.53907 -6.94141,4.61329 -1.71875,3.07812 -2.58203,7.4414 -2.58203,13.09765 0,4.73828 0.82812,8.66406 2.47656,11.77344 1.65235,3.11719 3.91797,4.67578 6.79297,4.67578 2.21484,0 4.64453,-1.20703 7.29688,-3.61328 z m 0,0"
     id="path18"
     style="fill:#ffffff" />
  <path
     fill-rule="nonzero"
     fill="#8b9f81"
     fill-opacity="1"
     d="m 351.34961,73.766754 c -2.69531,1.63281 -5.20313,2.45312 -7.53906,2.45312 -2.7461,0 -5.14844,-0.91797 -7.19141,-2.75 -2.04297,-1.83203 -3.53516,-4.36719 -4.46875,-7.59375 -0.9375,-3.22656 -1.40234,-6.6875 -1.40234,-10.37109 0,-6.07422 1.20312,-11.01953 3.60547,-14.83203 2.41015,-3.8086 5.67578,-5.71485 9.80468,-5.71485 2.36328,0 4.76563,0.8125 7.19141,2.4336 v 4.64453 c -2.53906,-2.35156 -4.88672,-3.52735 -7.03906,-3.52735 -2.91407,0 -5.23438,1.53907 -6.95313,4.61329 -1.71094,3.07812 -2.57422,7.4414 -2.57422,13.09765 0,4.73828 0.83203,8.66406 2.47657,11.77344 1.64843,3.11719 3.91015,4.67578 6.79296,4.67578 2.20704,0 4.64454,-1.20703 7.29688,-3.61328 z m 0,0"
     id="path20"
     style="fill:#ffffff" />
  <path
     fill-rule="nonzero"
     fill="#8b9f81"
     fill-opacity="1"
     d="m 367.91211,38.508934 c -3.21094,0 -5.57813,1.63282 -7.09375,4.88672 -1.51953,3.25782 -2.27734,7.52344 -2.27734,12.79297 0,4.98828 0.78906,8.96875 2.3789,11.9375 1.58594,2.96875 3.78125,4.45313 6.58594,4.45313 2.85156,0 5.07422,-1.52735 6.68359,-4.58594 1.60157,-3.05469 2.40235,-7.21094 2.40235,-12.46094 0,-5.71094 -0.84766,-9.97656 -2.53516,-12.79297 -1.69531,-2.82031 -3.73828,-4.23047 -6.14453,-4.23047 m -0.17188,-3.55078 c 3.85938,0 6.98047,1.85938 9.36719,5.58594 2.38672,3.72656 3.58203,8.96094 3.58203,15.70703 0,6.05469 -1.23047,10.89453 -3.69531,14.52344 -2.46484,3.63281 -5.59766,5.44531 -9.39844,5.44531 -3.875,0 -7.03515,-1.79297 -9.45703,-5.375 -2.42187,-3.58203 -3.63672,-8.53906 -3.63672,-14.88281 0,-6.45703 1.17188,-11.57031 3.52344,-15.34375 2.34766,-3.77344 5.58594,-5.66016 9.71484,-5.66016"
     id="path22"
     style="fill:#ffffff" />
  <path
     fill-rule="nonzero"
     fill="#8b9f81"
     fill-opacity="1"
     d="m 386.41992,35.618314 h 3.89453 v 36.58984 h 14.875 v 3.37891 h -18.76953 z m 0,0"
     id="path24"
     style="fill:#ffffff" />
  <path
     fill-rule="nonzero"
     fill="#8b9f81"
     fill-opacity="1"
     d="m 419.52148,38.508934 c -3.21484,0 -5.57812,1.63282 -7.09765,4.88672 -1.52344,3.25782 -2.27735,7.52344 -2.27735,12.79297 0,4.98828 0.79297,8.96875 2.375,11.9375 1.59375,2.96875 3.78516,4.45313 6.59375,4.45313 2.84375,0 5.07032,-1.52735 6.67579,-4.58594 1.60546,-3.05469 2.40625,-7.21094 2.40625,-12.46094 0,-5.71094 -0.84375,-9.97656 -2.53516,-12.79297 -1.69141,-2.82031 -3.74219,-4.23047 -6.14063,-4.23047 m -0.17968,-3.55078 c 3.86718,0 6.98437,1.85938 9.375,5.58594 2.38672,3.72656 3.58203,8.96094 3.58203,15.70703 0,6.05469 -1.23047,10.89453 -3.69531,14.52344 -2.46485,3.63281 -5.60547,5.44531 -9.39844,5.44531 -3.88281,0 -7.03516,-1.79297 -9.46094,-5.375 -2.42578,-3.58203 -3.63672,-8.53906 -3.63672,-14.88281 0,-6.45703 1.17188,-11.57031 3.51953,-15.34375 2.35547,-3.77344 5.58985,-5.66016 9.71485,-5.66016"
     id="path26"
     style="fill:#ffffff" />
  <path
     fill-rule="nonzero"
     fill="#8b9f81"
     fill-opacity="1"
     d="m 441.26367,49.294094 h -1.98047 c 1.14844,-2.44531 1.8086,-4.77734 1.98047,-6.99219 -0.73047,-0.36328 -1.26953,-0.8125 -1.64062,-1.34765 -0.35547,-0.53125 -0.53907,-1.16407 -0.53907,-1.89063 0,-1.18359 0.27344,-2.16406 0.82032,-2.9375 0.53906,-0.77344 1.21484,-1.16015 2.01562,-1.16015 0.7461,0 1.35938,0.41015 1.83203,1.23437 0.47657,0.82031 0.72266,1.83203 0.72266,3.03906 0,1.54297 -0.27344,3.15235 -0.80859,4.82422 -0.53516,1.67188 -1.33594,3.41797 -2.40235,5.23047"
     id="path28"
     style="fill:#ffffff" />
  <path
     fill-rule="nonzero"
     fill="#e2b0a5"
     fill-opacity="1"
     d="m 205.76758,47.755034 c -0.41797,-0.85547 -0.97266,-1.29297 -1.67188,-1.30469 -0.69531,-0.0117 -1.41015,0.23047 -2.1289,0.73438 -0.72657,0.5039 -1.40625,1.16796 -2.04297,1.98437 -0.63672,0.82031 -1.10156,1.62891 -1.39453,2.42578 -0.29297,0.79297 -0.35938,1.5 -0.1875,2.10938 0.17578,0.61328 0.69922,0.94531 1.58203,0.99218 0.53906,-0.0703 1.09765,-0.32812 1.67187,-0.77343 0.57813,-0.4375 1.14063,-0.97657 1.69141,-1.60938 0.55078,-0.64062 1.08594,-1.32812 1.59766,-2.0625 0.51562,-0.73437 0.99218,-1.43359 1.42968,-2.08984 h -0.0703 c -0.32031,0.0469 -0.47656,-0.0899 -0.47656,-0.40625 m 0.8789,-0.10938 0.8086,-1.24609 0.33203,-0.44531 c 0.14844,-0.16797 0.33594,-0.30469 0.57031,-0.40235 0.23047,-0.10156 0.46094,-0.15625 0.67578,-0.16797 0.22266,-0.0117 0.41407,0.0274 0.57422,0.13282 0.15625,0.0937 0.23828,0.25 0.23828,0.47265 -0.14843,0.3711 -0.38672,0.90235 -0.71875,1.59766 -0.33203,0.69922 -0.6914,1.47656 -1.08203,2.33594 -0.39062,0.85547 -0.75781,1.72656 -1.10156,2.60547 -0.34375,0.88281 -0.60156,1.6914 -0.77344,2.42578 -0.17187,0.73437 -0.20703,1.33203 -0.10937,1.78515 0.0976,0.45313 0.39062,0.67969 0.88281,0.67969 0.24219,0 0.53516,-0.0508 0.88281,-0.14453 0.33985,-0.10156 0.73828,-0.26172 1.19141,-0.48047 0.45312,-0.22266 0.98047,-0.50781 1.58203,-0.86328 0.59766,-0.35547 1.28906,-0.80469 2.07422,-1.34375 0.66015,-0.46484 1.25,-0.875 1.76562,-1.23047 0.51172,-0.35547 1.00391,-0.70703 1.48438,-1.0625 0.47656,-0.35937 0.95703,-0.71484 1.43359,-1.06641 0.47656,-0.35546 1.01172,-0.76562 1.59766,-1.23046 0.22265,-0.17188 0.41406,-0.14063 0.58984,0.10937 0.0977,0.0977 0.13281,0.20313 0.10938,0.3125 -0.0274,0.10938 -0.0859,0.20313 -0.1836,0.27734 -0.58593,0.46094 -1.12109,0.8711 -1.60156,1.23047 -0.47656,0.35157 -0.94531,0.70703 -1.41406,1.0625 -0.46094,0.35547 -0.95703,0.71485 -1.48438,1.08594 -0.52734,0.36719 -1.13281,0.78125 -1.8164,1.25 -1.78907,1.22656 -3.28907,2.07422 -4.48438,2.55078 -1.20312,0.48047 -2.15625,0.65625 -2.86719,0.53125 -0.53906,-0.0976 -0.93359,-0.37109 -1.19531,-0.82422 -0.25781,-0.45312 -0.38281,-1.02343 -0.38281,-1.71093 0,-0.6836 0.10937,-1.45313 0.33203,-2.29297 0.21484,-0.84766 0.53516,-1.73438 0.94922,-2.66797 -0.38672,0.51562 -0.83203,1.08203 -1.32031,1.69531 -0.48828,0.60938 -1.02735,1.16016 -1.61719,1.64844 -0.58594,0.49609 -1.22266,0.87109 -1.91016,1.14062 -0.68359,0.26953 -1.39453,0.3086 -2.1289,0.10938 -0.9336,-0.21875 -1.54297,-0.6875 -1.83594,-1.39453 -0.29297,-0.71094 -0.36328,-1.50391 -0.20313,-2.39063 0.16016,-0.8789 0.5,-1.76562 1.02735,-2.66015 0.52734,-0.89454 1.16015,-1.64844 1.89453,-2.26172 0.68359,-0.5625 1.39844,-0.99219 2.14453,-1.28125 0.75,-0.29688 1.46875,-0.42578 2.15234,-0.38672 0.6875,0.0351 1.28907,0.2539 1.81641,0.65625 0.53125,0.40625 0.90625,1.02734 1.12109,1.85937"
     id="path30"
     style="fill:#ffffff;fill-opacity:1" />
  <path
     fill-rule="nonzero"
     fill="#e2b0a5"
     fill-opacity="1"
     d="m 218.51367,50.325344 c 0.90625,-0.68359 1.6875,-1.26953 2.35156,-1.76172 0.66407,-0.49219 1.25391,-0.91797 1.76563,-1.28906 0.51172,-0.36719 0.97266,-0.66797 1.375,-0.91406 0.40625,-0.25 0.77734,-0.46875 1.12109,-0.66407 0.0508,-0.0234 0.17578,-0.0547 0.38672,-0.0898 0.20703,-0.0352 0.42578,-0.0586 0.64453,-0.0742 0.21875,-0.0117 0.40625,0 0.56641,0.0391 0.15625,0.0352 0.22656,0.11329 0.19922,0.23438 -0.0703,0.22266 -0.25781,0.64062 -0.5625,1.25391 -0.3086,0.60937 -0.67188,1.40625 -1.10547,2.38281 -0.42969,0.98437 -0.88672,2.10937 -1.37891,3.38281 -0.48828,1.27344 -0.95312,2.67969 -1.39453,4.22266 0.41797,-0.51563 0.92578,-1.17969 1.52344,-2 0.60156,-0.82032 1.25,-1.6875 1.94531,-2.58985 0.69922,-0.90625 1.41016,-1.80468 2.13672,-2.69922 0.71875,-0.89843 1.42578,-1.6875 2.10547,-2.37109 0.6875,-0.6875 1.32812,-1.21875 1.91406,-1.60156 0.58985,-0.375 1.07813,-0.50781 1.47266,-0.38281 0.60937,0.19531 0.98047,0.55859 1.09765,1.08203 0.125,0.52734 0.0899,1.14843 -0.10546,1.85547 -0.19922,0.71484 -0.4961,1.47265 -0.90235,2.29687 -0.40234,0.82031 -0.8164,1.62109 -1.2539,2.41016 -0.42579,0.78125 -0.81641,1.50781 -1.17188,2.16406 -0.35156,0.66016 -0.58203,1.1875 -0.67578,1.58203 -0.0977,0.41797 0.043,0.61328 0.41797,0.58594 0.3789,-0.0234 0.83594,-0.14063 1.36328,-0.34766 0.52344,-0.21094 1.03906,-0.43359 1.53906,-0.67969 0.50391,-0.24609 0.82813,-0.40625 0.97656,-0.48046 1.07813,-0.51563 2.1875,-1.07422 3.33985,-1.6875 1.15234,-0.61329 2.23437,-1.19922 3.25,-1.76563 1.01953,-0.5625 1.89844,-1.05469 2.6289,-1.48828 0.73438,-0.42578 1.22657,-0.71484 1.46875,-0.85938 0.2461,-0.17578 0.45704,-0.125 0.62891,0.14454 0.12109,0.27343 0.0586,0.46484 -0.1875,0.58984 l -3.45312,2.08984 c -2.15235,1.22657 -4.00391,2.23047 -5.54688,3.01172 -1.54297,0.78516 -2.83984,1.39453 -3.89062,1.82422 -1.0586,0.42578 -1.89454,0.69531 -2.51954,0.80469 -0.625,0.11328 -1.08593,0.10156 -1.3789,-0.0195 -0.44141,-0.16797 -0.60547,-0.59766 -0.4961,-1.28125 0.11329,-0.6836 0.36329,-1.48438 0.75,-2.39063 0.39454,-0.90625 0.85938,-1.86328 1.40235,-2.88281 0.53906,-1.01563 1.01172,-1.94531 1.41406,-2.79297 0.40234,-0.84766 0.67969,-1.54297 0.82813,-2.09375 0.14453,-0.55078 0.0312,-0.8125 -0.33204,-0.78906 -0.39453,0.12109 -0.89062,0.47265 -1.48828,1.04687 -0.60156,0.57422 -1.24609,1.27344 -1.92968,2.09375 -0.6875,0.82032 -1.39063,1.70313 -2.11329,2.64453 -0.72265,0.94141 -1.39453,1.84375 -2.01953,2.69922 -0.625,0.85547 -1.17578,1.60547 -1.65625,2.24219 -0.47656,0.64063 -0.8125,1.0625 -1.00781,1.28906 -0.95312,0.48828 -1.55469,0.51172 -1.80078,0.0703 -0.17188,-0.26954 -0.20703,-0.72657 -0.10547,-1.37891 0.0937,-0.64844 0.25781,-1.37109 0.49219,-2.16406 0.23047,-0.79688 0.51172,-1.63282 0.84375,-2.50391 0.33203,-0.86719 0.66015,-1.66797 0.99219,-2.40234 0.32812,-0.73828 0.61718,-1.35938 0.86328,-1.875 0.24218,-0.51563 0.41797,-0.81641 0.51562,-0.91797 -0.36719,0.24609 -0.80859,0.55859 -1.32422,0.9375 -0.51172,0.3789 -1.02734,0.76172 -1.54297,1.15625 -0.51562,0.39062 -1.0039,0.75781 -1.46875,1.10156 -0.46875,0.34375 -0.82031,0.61328 -1.0664,0.8125 -0.26953,0.12109 -0.46094,0.0586 -0.58594,-0.1875 -0.17187,-0.24609 -0.12109,-0.45312 0.14453,-0.625"
     id="path32"
     style="fill:#ffffff;fill-opacity:1" />
  <path
     fill-rule="nonzero"
     fill="#e2b0a5"
     fill-opacity="1"
     d="m 269.0332,24.719874 c -0.39453,-0.0937 -0.92187,0.14453 -1.60156,0.734379 -0.67187,0.58984 -1.42187,1.41797 -2.25391,2.5 -0.83203,1.07812 -1.71484,2.34375 -2.64843,3.80078 -0.9336,1.45703 -1.85157,3.011721 -2.75782,4.664061 -0.90625,1.65625 -1.76953,3.35156 -2.58984,5.08984 -0.82031,1.73829 -1.53516,3.42969 -2.14453,5.07032 0.77734,-0.92969 1.73437,-2.10157 2.85937,-3.50782 1.12891,-1.40625 2.30079,-2.90625 3.51563,-4.48437 1.21094,-1.58203 2.37891,-3.16406 3.50391,-4.75781 1.13281,-1.593751 2.08593,-3.035161 2.86718,-4.335941 0.77735,-1.29688 1.30469,-2.37891 1.57813,-3.25 0.26953,-0.86719 0.15625,-1.37891 -0.32813,-1.523439 m -16.97656,25.71875 c 0.0781,-0.42187 0.16797,-0.83594 0.27734,-1.2539 0.10938,-0.41407 0.22657,-0.83204 0.34766,-1.25 -0.0937,-0.0937 -0.14453,-0.16797 -0.14453,-0.21485 l -0.33203,-0.92187 c -0.19531,-0.4375 -0.49219,-0.59766 -0.88281,-0.47657 -0.39063,0.125 -0.82422,0.42188 -1.30469,0.89844 -0.47656,0.47656 -0.96485,1.08594 -1.46875,1.82031 -0.50391,0.73438 -0.98047,1.51172 -1.4336,2.33204 -0.45312,0.82421 -0.83984,1.63671 -1.15625,2.44531 -0.32031,0.80859 -0.52734,1.50781 -0.625,2.08984 -0.10156,0.58985 -0.0625,1.02735 0.11329,1.3086 0.16796,0.27734 0.53515,0.32031 1.10156,0.1289 0.46484,-0.26953 0.96094,-0.6875 1.48828,-1.25 0.52344,-0.5625 1.03516,-1.17969 1.54297,-1.85547 0.5,-0.67578 0.96484,-1.34765 1.39453,-2.02343 0.42969,-0.67188 0.78906,-1.26563 1.08203,-1.77735 m 4.58984,7.23828 c 1.17579,-0.22656 2.44141,-0.63281 3.78907,-1.23437 1.34765,-0.59766 2.6914,-1.27344 4.04297,-2.01953 1.34375,-0.7461 2.66015,-1.51563 3.94921,-2.3125 1.28516,-0.79297 2.44922,-1.52735 3.50782,-2.1875 0.0976,-0.0469 0.20703,-0.0703 0.32812,-0.0547 0.1211,0.0117 0.21094,0.0781 0.25781,0.20312 0.17579,0.24219 0.12891,0.44922 -0.14453,0.625 -1.07422,0.65625 -2.26953,1.39844 -3.57031,2.21875 -1.29297,0.82032 -2.625,1.60547 -4,2.35157 -1.37109,0.75 -2.75,1.42578 -4.11328,2.02343 -1.375,0.59766 -2.67578,1.01172 -3.89844,1.22657 -1.02734,0.19922 -1.8789,0.1914 -2.57031,-0.0156 -0.6875,-0.20703 -1.22656,-0.57031 -1.63281,-1.08203 -0.41016,-0.51562 -0.67578,-1.17187 -0.8086,-1.96875 -0.14062,-0.79297 -0.16797,-1.69531 -0.0898,-2.69531 -0.56641,0.90234 -1.21094,1.82031 -1.93359,2.75 -0.72266,0.92969 -1.44922,1.67969 -2.1836,2.24219 -0.64062,0.4414 -1.21875,0.67968 -1.74609,0.71484 -0.52344,0.0391 -0.98047,-0.082 -1.35938,-0.36719 -0.3789,-0.28125 -0.65625,-0.6875 -0.82812,-1.22656 -0.16797,-0.54297 -0.19922,-1.15234 -0.0742,-1.83984 0.125,-0.78125 0.39453,-1.66407 0.8125,-2.625 0.41797,-0.96875 0.90625,-1.89844 1.46484,-2.79297 0.5625,-0.89453 1.1836,-1.70703 1.85938,-2.44141 0.67578,-0.73828 1.33203,-1.27734 1.98047,-1.61719 0.65234,-0.34375 1.27734,-0.44922 1.875,-0.3125 0.60156,0.13282 1.11328,0.62891 1.52734,1.48438 0.53906,-1.66406 1.20703,-3.3711 2.00391,-5.1211 0.79297,-1.7539 1.64843,-3.46875 2.57031,-5.14453 0.91406,-1.67968 1.87109,-3.26953 2.86719,-4.77343 0.99218,-1.50782 1.97265,-2.83594 2.93359,-3.97266 0.96875,-1.14063 1.89844,-2.05469 2.79688,-2.75391 0.89453,-0.69922 1.67968,-1.08593 2.37109,-1.15625 0.97266,-0.10156 1.55469,0.15235 1.73828,0.75 0.1875,0.60157 0.082,1.4336 -0.32812,2.5 -0.40235,1.06641 -1.03125,2.30078 -1.89454,3.70703 -0.85156,1.41016 -1.82812,2.875 -2.91796,4.39454 -1.08594,1.51953 -2.21875,3.03125 -3.39454,4.53515 -1.17187,1.50781 -2.27734,2.89844 -3.30859,4.17188 -1.03516,1.27343 -1.9375,2.36328 -2.71875,3.26953 -0.78125,0.90625 -1.30859,1.51953 -1.58203,1.83594 -0.41406,1.375 -0.71484,2.63281 -0.90234,3.78906 -0.17969,1.14844 -0.19141,2.12109 -0.0352,2.91797 0.15625,0.79687 0.50781,1.375 1.05078,1.74609 0.53906,0.36328 1.30859,0.44922 2.30859,0.25781"
     id="path34"
     style="fill:#ffffff;fill-opacity:1" />
</svg>
